# xmcd
#
# Track frame offsets:
#	182
#	7992
#	18252
#	31925
#	42015
#	52200
#	61177
#	76555
#	88980
#	104307
#	116397
#	126365
#	138490
#	147102
#	158370
#	174577
#	185112
#	197382
#	212275
#	222062
#	233415
#	247777
#	258452
#	267997
#	280590
#	300830
#	314490
#	326297
#
# Disc length: 4530
#
# Revision: 3
# Processed by: cddbd v1.5.1PL0 Copyright (c) Steve Scherf et al.
# Submitted via: CDex 1.40Beta8
# Normalized: r2:DSETVAR1,TDELIM( - )
#
DISCID=6511b01c
DTITLE=Various Artist - Country and Western Classics
DYEAR=1900
DGENRE=Country
TTITLE0=George Jones - Jambalaya
TTITLE1=Frankie Laine - Mule Skinner Blues
TTITLE2=Willie Nelson - You'll Always Have Someone
TTITLE3=Waylon Jennings - White Lightning
TTITLE4=carl Perkins - Daddy Sang Bass
TTITLE5=Sandy Posey - Born A Woman
TTITLE6=Jim Reeves - The Blizzard
TTITLE7=Bobby Helms - Fraulein
TTITLE8=Ray Pillow - How Do I Hide From A Memory
TTITLE9=Tex Ritter - Goodbye My Little Cherokee
TTITLE10=Johnny Paycheck - Who Needs Your Love
TTITLE11=Gene Simmons - Catahoula Cur Dog
TTITLE12=Conway Twitty - Blue Is The Way I Feel
TTITLE13=Don Wlliams - Follow me Back To Louisville
TTITLE14=Rex Allen Jnr - Memory Train
TTITLE15=Carl Perkins - What Am I Living For
TTITLE16=Ray Price - Rain And Tears
TTITLE17=Frankie Laine - Sixteen Tons
TTITLE18=Eddie Jones - Deep In The Heart Of Texas
TTITLE19=George Jones - I Can't Change Overnight
TTITLE20=Billie Jo Spears - I'll Never Be Free
TTITLE21=Don Gibson - Oh Lonesome Me
TTITLE22=Donna Fargo - Stick And Stones
TTITLE23=Freddy Fender - Silver Wings
TTITLE24=Gram Parson and Emmy Lou Harris - Love Hurts
TTITLE25=Freddie Fender - Baby I Want To Love You
TTITLE26=Don David Jnr - Country Kings
TTITLE27=George Jones - Cold Cold Heart
EXTD=ID3G: 2
EXTT0=
EXTT1=
EXTT2=
EXTT3=
EXTT4=
EXTT5=
EXTT6=
EXTT7=
EXTT8=
EXTT9=
EXTT10=
EXTT11=
EXTT12=
EXTT13=
EXTT14=
EXTT15=
EXTT16=
EXTT17=
EXTT18=
EXTT19=
EXTT20=
EXTT21=
EXTT22=
EXTT23=
EXTT24=
EXTT25=
EXTT26=
EXTT27=
PLAYORDER=
